PathFileType	4	(X/Y/Z)	T1_P2_NoVision_Movement_0_0-734.trc
DataRate	CameraRate	NumFrames	NumMarkers	Units	OrigDataRate	OrigDataStartFrame	OrigNumFrames
60	60	4	27	m	60	183	734
Frame#	Time	RHip			RKnee			RAnkle			RBigToe			RSmallToe			RHeel			LHip			LKnee			LAnkle			LBigToe			LSmallToe			LHeel			Neck			Head			Nose			RShoulder			RElbow			RWrist			RThumb			RIndex			RPinky			LShoulder			LElbow			LWrist			LThumb			LIndex			LPinky		
		X1	Y1	Z1	X2	Y2	Z2	X3	Y3	Z3	X4	Y4	Z4	X5	Y5	Z5	X6	Y6	Z6	X7	Y7	Z7	X8	Y8	Z8	X9	Y9	Z9	X10	Y10	Z10	X11	Y11	Z11	X12	Y12	Z12	X13	Y13	Z13	X14	Y14	Z14	X15	Y15	Z15	X16	Y16	Z16	X17	Y17	Z17	X18	Y18	Z18	X19	Y19	Z19	X20	Y20	Z20	X21	Y21	Z21	X22	Y22	Z22	X23	Y23	Z23	X24	Y24	Z24	X25	Y25	Z25	X26	Y26	Z26	X27	Y27	Z27
184	3.066666666666667	448.84627989299133	3632.9528400156073	536.8448720119067	886.4185737315539	3742.269858880579	595.0824741521793	1232.4884232539991	3708.336483453611	617.5793820168476	1318.5464786262078	3627.5895298234013	613.3557559201226	1297.456791132894	3631.7184093701844	545.9218159658988	1260.2064706377641	3692.065388601494	630.5489062457204	470.57762263693195	3526.5345460248695	739.9202851062527	869.013920527924	3546.874491916851	739.1212569070784	1201.1351719088718	3586.297719562235	736.3239532392258	1312.988793256218	3559.1561343470853	700.176900675533	1273.089963408281	3471.765993738085	720.5999717974817	1250.9771898578972	3608.543334809353	728.9901446177929	-116.51897122359618	3553.780849913593	655.6695610297086	-373.36368781175076	3504.133020606872	629.3354226893413	-226.14889027000876	3482.3643826263615	617.4068606948334	-38.67981521940394	3714.1733285182613	557.2027411184151	174.40941096823772	3742.584748047958	453.7685872139777	250.6486055573148	3562.482623132151	454.216831986372	235.7347594611153	3456.4270459126833	495.96554577976525	278.1918914417032	3447.5430375038836	499.91170282306916	317.8474917118235	3445.050835954696	480.0544176195647	-20.858330414202083	3575.670473446707	853.0613607821308	232.89559104939937	3496.6108443589874	866.0924833599854	476.83405876974837	3435.6309227128504	831.2676157689855	584.4793290802297	3452.4777717355773	812.0168468655793	608.666624573567	3443.5803114825067	830.4661269537345	613.1905377920725	3448.0508159864185	857.7474757499677
185	3.0833333333333335	452.2945635632746	3649.232992189369	549.8640454310914	881.1304406420531	3720.7102074073277	589.4569371566188	1234.82975750553	3702.1440191041206	614.3920476060101	1321.146495493766	3622.5966255228427	610.5345218058128	1297.4490294201591	3631.508278234555	545.5755599736319	1262.3901547932521	3686.3318487743045	627.5765198716284	470.6049110200221	3526.378419771894	739.9010136809308	869.1555552378508	3547.0353785702373	739.220745269895	1200.9655638123918	3586.28149230075	736.3424488640514	1312.66165443634	3556.3779864505373	704.2085358105599	1273.1574425720614	3471.918873748193	720.8629620743069	1242.3079622238408	3611.7843422077462	730.0659944808472	-116.633657603541	3553.6664711328035	655.6172466126988	-373.4350778377431	3504.260259161957	629.4099011009721	-230.90002402504388	3486.4283567207967	619.6684361187141	-38.63537780427441	3714.148281686397	557.1701939260092	183.31108774445514	3746.0747267219353	455.20102510132284	262.8212658973295	3582.5330361853016	469.1851027545242	243.92301006527464	3443.9365331494905	492.0353223176449	290.25847650507035	3429.2678405618544	494.96761944970353	324.88966786650275	3447.832088447053	479.8269906760323	-16.837716282855602	3571.73379571573	850.9144044710791	236.92737786632867	3492.3806460355127	863.3973449901648	476.8563733917159	3435.3890536181284	831.0584486350797	584.8465860919683	3452.4931242884886	812.0908497284698	605.3946567654823	3431.546686695365	818.699877889314	607.641723663153	3444.310040900195	856.0985276648598
186	3.1	457.7404498529203	3652.8743224157047	551.0760895878361	881.2126792809071	3720.761393800066	589.5770507042076	1235.2303634357638	3702.5705350380726	614.7894241063337	1321.1696928465094	3620.187508401376	615.322573603756	1297.3219105283138	3631.3448475402292	545.7006318374829	1260.4031324470939	3692.1335415432545	630.5632554930697	470.65858828078416	3526.1493836523673	739.8486378135289	875.5820883314881	3554.6449788543437	736.868964119135	1201.4339134168476	3586.134478029694	736.366445679995	1318.9398661111998	3560.1387535357126	705.1329440422217	1273.2870844795773	3471.9773428956073	720.9513900689398	1257.6451008712002	3612.5472333828857	729.7201803803539	-116.58513996871926	3553.623137413432	655.5731527815723	-373.46205763011744	3504.212494750125	629.430458973823	-230.98769869375906	3486.4809883393477	619.7601543602108	-43.698358567175795	3712.6207250564594	556.6972049307152	178.7150007041099	3744.4612822591866	454.591461573402	266.11138011937743	3570.3897110823227	457.3514671871672	272.6754761613162	3449.323730801072	495.5607827717907	303.374861927001	3436.2464937432046	493.3928408390463	329.1696422463285	3448.856923255469	479.5887664807017	-16.752705217195693	3571.3320267367685	850.5823574635643	239.56181437800913	3472.4705711267493	856.9273589327461	476.8237814993577	3435.138519027095	830.9262557388998	584.4902142893975	3452.249279294028	812.0928376657682	602.8829165130604	3439.7531522373943	829.051701567595	607.6152432143971	3444.9644896962736	856.5640392387392
187	3.1166666666666667	462.8280430173024	3654.4486630443675	552.1679252641571	885.1323220546275	3714.883777151472	586.518092879073	1235.252095810671	3702.435628371406	614.7757496493393	1318.4418455405462	3627.26399831729	613.1041159185096	1297.2602496949326	3631.223821784883	545.5975303645805	1269.7754182245337	3707.564762911425	633.078935860509	481.40976736884454	3531.690570861181	742.5944822851785	875.6604604733549	3554.4824887087407	736.7302530016086	1215.78530204345	3586.2095814897707	735.6661705036324	1319.1027640804407	3560.074837841337	705.2065429348371	1273.373554881363	3472.0867785032674	721.0743629168287	1263.651855635663	3616.2806050826684	730.4704304943873	-116.65674519494856	3553.5877169485425	655.5569169832421	-378.1568647507121	3507.9792540419453	631.4669774082208	-231.05278562718235	3486.4155955763736	619.6733758041593	-38.634076942263704	3714.079321843502	557.1304675237477	178.61780010127015	3744.419724117919	454.663804013268	273.52398558653294	3559.8576585450405	446.58944675019785	284.43539012014037	3434.002258860382	482.81053550887424	311.8522927293086	3433.480477772088	491.39428014247363	347.95142031957045	3454.8210224793356	480.9263354271372	-16.722487845762334	3571.3095667127004	850.5394461671077	239.55730653611226	3472.4135021972806	856.9318720094892	476.8839464663073	3435.1195710380116	830.9023171876463	584.4361492679166	3452.1729864632703	812.1327578321017	608.6753506008017	3443.4355668925496	830.681727170195	607.5360784123866	3445.1038623250192	856.572100542374
